<?xml version="1.0" encoding="utf-8"?>
<!-- Generator: Adobe Illustrator 16.0.0, SVG Export Plug-In . SVG Version: 6.00 Build 0)  -->
<!DOCTYPE svg PUBLIC "-//W3C//DTD SVG 1.1//EN" "http://www.w3.org/Graphics/SVG/1.1/DTD/svg11.dtd">
<svg version="1.1" id="Layer_1" xmlns="http://www.w3.org/2000/svg" xmlns:xlink="http://www.w3.org/1999/xlink" x="0px" y="0px"
	 width="480px" height="480px" viewBox="0 0 480 480" enable-background="new 0 0 480 480" xml:space="preserve">
<rect fill="#00A99D" width="480" height="480"/>
<path d="M24.667,479.667c0,0.111,0.004,0.222,0.004,0.333h223.083L233.5,292.825c-21.344-1.129-41.244-7.788-58.297-18.562
	C87.943,301.765,24.667,383.323,24.667,479.667z"/>
<path d="M304.798,274.264c-16.777,10.6-36.311,17.209-57.263,18.496L261.795,480h193.534c0-0.111,0.004-0.222,0.004-0.333
	C455.333,383.323,392.057,301.765,304.798,274.264z"/>
<g>
	<path d="M347.667,171.333c0-59.368-48.299-107.667-107.667-107.667c-59.368,0-107.667,48.299-107.667,107.667S180.632,279,240,279
		C299.368,279,347.667,230.701,347.667,171.333z"/>
</g>
</svg>
